<svg id="Layer_1" height="512" viewBox="0 0 512 512" width="512" xmlns="http://www.w3.org/2000/svg" data-name="Layer 1"><path d="m226 346a12.013 12.013 0 0 0 12-12v-156a12.013 12.013 0 0 0 -12-12h-40a12.013 12.013 0 0 0 -12 12v156a12.013 12.013 0 0 0 12 12zm-40-168h40l.008 156h-40.008z"/><path d="m326 346a12.013 12.013 0 0 0 12-12v-156a12.013 12.013 0 0 0 -12-12h-40a12.013 12.013 0 0 0 -12 12v156a12.013 12.013 0 0 0 12 12zm-40-168h40l.008 156h-40.008z"/><path d="m256 20a236 236 0 0 0 -166.877 402.877 236 236 0 1 0 333.754-333.754 234.452 234.452 0 0 0 -166.877-69.123zm158.392 394.392a224 224 0 0 1 -316.784-316.784 224 224 0 0 1 316.784 316.784z"/><path d="m258.771 50.018c-93.255-1.232-172.7 59.846-199.279 144.156a6.006 6.006 0 0 0 5.714 7.826h.008a5.976 5.976 0 0 0 5.7-4.173c24.791-78.691 98.472-135.903 185.259-135.827 106.486.093 193.557 87.016 193.827 193.5.27 107.2-86.862 194.5-194 194.5-106.972 0-194-87.028-194-194q0-8.809.781-17.424a6 6 0 1 0 -11.939-1.134q-.829 9.171-.842 18.558c0 113.589 92.411 206 206 206 113.773 0 206.3-92.711 206-206.552-.3-112.067-91.172-203.948-203.229-205.43z"/></svg>