<svg id="Capa_1" enable-background="new 0 0 502 502" height="512" viewBox="0 0 502 502" width="512" xmlns="http://www.w3.org/2000/svg" xmlns:xlink="http://www.w3.org/1999/xlink"><linearGradient id="SVGID_1_" gradientUnits="userSpaceOnUse" x1="2.299" x2="499.701" y1="298.075" y2="298.075"><stop offset=".0212" stop-color="#fd748d"/><stop offset="1" stop-color="#f3385d"/></linearGradient><linearGradient id="SVGID_2_" gradientUnits="userSpaceOnUse" x1="333.103" x2="172.88" y1="51.352" y2="143.857"><stop offset=".0206" stop-color="#80dfb5"/><stop offset="1" stop-color="#00c67f"/></linearGradient><g><path d="m499.661 293.563c-1.976-111.005-93.784-199.413-204.806-199.413h-87.709c-111.023 0-202.831 88.408-204.807 199.413-.027 1.501-.04 3.005-.04 4.512s.013 3.011.04 4.512c1.976 111.005 93.784 199.413 204.806 199.413h87.709c111.023 0 202.831-88.408 204.806-199.413.027-1.501.04-3.005.04-4.512.001-1.507-.013-3.011-.039-4.512z" fill="url(#SVGID_1_)"/><g><path d="m463.577 269.807c-4.538 0-8.647-3.11-9.728-7.719-2.511-10.71-6.126-21.323-10.744-31.546-2.274-5.033-.037-10.956 4.996-13.23s10.957-.037 13.23 4.996c5.15 11.399 9.184 23.247 11.99 35.214 1.26 5.377-2.076 10.758-7.453 12.019-.767.18-1.535.266-2.291.266z" fill="#fdc7d1"/></g><g><path d="m432.755 204.141c-3.002 0-5.97-1.346-7.939-3.911-3.585-4.67-7.484-9.212-11.587-13.501-3.818-3.99-3.678-10.321.313-14.139 3.99-3.818 10.321-3.678 14.139.313 4.602 4.81 8.975 9.906 13 15.147 3.364 4.381 2.539 10.658-1.842 14.022-1.817 1.394-3.959 2.069-6.084 2.069z" fill="#fdc7d1"/></g><path d="m232.887 174.388-25.742-80.238c-26.819 0-52.511 5.172-76.092 14.563 4.155 9.858 10.57 18.638 18.701 25.575-4.136 24.184 5.017 49.627 25.358 65.391 6.666 5.166 13.925 8.885 21.432 11.24 18.701 5.866 37.73-8.071 37.73-27.67-.001-3.008-.468-5.997-1.387-8.861z" fill="#f7496e"/><path d="m317.322 118.378c16.681-4.24 28.858-19.756 27.924-37.962-.961-18.724-16.086-33.999-34.801-35.13-8.971-.542-17.304 2.102-23.978 6.907-3.757 2.705-8.872-.712-7.902-5.239l5.052-23.587c2.576-12.027-6.593-23.367-18.892-23.367h-27.449c-12.3 0-21.468 11.34-18.892 23.367l5.052 23.587c.969 4.526-4.145 7.943-7.902 5.239-6.674-4.805-15.007-7.449-23.978-6.907-18.715 1.131-33.839 16.406-34.801 35.13-.935 18.205 11.243 33.721 27.924 37.962 2.542.646 3.604 3.661 2.075 5.791-.661.921-1.287 1.88-1.874 2.878-9.404 15.968-5.425 36.777 9.223 48.129 17.22 13.345 41.817 9.127 53.716-8.668.013-.019.025-.038.038-.056 1.509-2.267 4.78-2.267 6.289 0 .013.019.025.038.038.056 11.899 17.795 36.497 22.013 53.716 8.668 14.647-11.352 18.627-32.161 9.223-48.129-.588-.998-1.213-1.958-1.874-2.878-1.531-2.131-.469-5.145 2.073-5.791z" fill="url(#SVGID_2_)"/><g><ellipse cx="117.932" cy="337.52" fill="#fdaece" rx="22.615" ry="18.174"/><ellipse cx="384.068" cy="337.52" fill="#fdaece" rx="22.615" ry="18.174"/><circle cx="156.704" cy="292.676" fill="#fff" r="44.844"/><ellipse cx="174.82" cy="292.676" fill="#383842" rx="26.728" ry="26.727" transform="matrix(.23 -.973 .973 .23 -150.191 395.577)"/><circle cx="345.297" cy="292.676" fill="#fff" r="44.844"/><g fill="#383842"><ellipse cx="363.32" cy="292.676" rx="26.728" ry="26.728" transform="matrix(.707 -.707 .707 .707 -100.539 342.629)"/><ellipse cx="251" cy="326.671" rx="20.065" ry="26.273"/></g></g></g></svg>