<?xml version="1.0" encoding="iso-8859-1"?>
<!-- Generator: Adobe Illustrator 19.0.0, SVG Export Plug-In . SVG Version: 6.00 Build 0)  -->
<svg version="1.1" id="Layer_1" xmlns="http://www.w3.org/2000/svg" xmlns:xlink="http://www.w3.org/1999/xlink" x="0px" y="0px"
	 viewBox="0 0 494.4 494.4" style="enable-background:new 0 0 494.4 494.4;" xml:space="preserve">
<path style="fill:#C92B00;" d="M494.4,268.4c0,124-110.4,204-247.2,204S0,392.4,0,268.4S110.4,95.6,247.2,95.6
	S494.4,144.4,494.4,268.4z"/>
<path style="fill:#A01C02;" d="M247.2,95.6c136.8,0,247.2,48,247.2,172.8c0,124-110.4,204-247.2,204"/>
<path style="fill:#871506;" d="M247.2,95.6c136.8,0,247.2,48,247.2,172.8"/>
<g>
	
		<ellipse transform="matrix(-0.4967 -0.8679 0.8679 -0.4967 -0.6555 349.1544)" style="fill:#EF4220;" cx="100.907" cy="174.767" rx="25.6" ry="68.799"/>
	
		<ellipse transform="matrix(-0.4966 -0.868 0.868 -0.4966 -161.8384 411.1884)" style="fill:#EF4220;" cx="38.32" cy="252.525" rx="16" ry="15.2"/>
</g>
<ellipse style="fill:#5EA304;" cx="247.2" cy="105.2" rx="105.6" ry="30.4"/>
<ellipse style="fill:#388C02;" cx="247.2" cy="96.4" rx="93.6" ry="21.6"/>
<polygon style="fill:#5EA304;" points="204.8,133.2 247.2,175.6 289.6,133.2 "/>
<polygon style="fill:#388C02;" points="240.8,133.2 247.2,175.6 289.6,133.2 "/>
<polygon style="fill:#5EA304;" points="142.4,108.4 164.8,154 209.6,130.8 "/>
<g>
	<polygon style="fill:#388C02;" points="171.2,118 164.8,154 209.6,130.8 	"/>
	<polygon style="fill:#388C02;" points="352,108.4 329.6,154 284.8,130.8 	"/>
</g>
<polygon style="fill:#5EA304;" points="323.2,118 329.6,154 284.8,130.8 "/>
<polygon style="fill:#388C02;" points="266.4,88.4 228,88.4 236,24.4 258.4,24.4 "/>
<polyline style="fill:#036D2E;" points="236,24.4 258.4,24.4 266.4,88.4 "/>
<g>
	<ellipse style="fill:#5EA304;" cx="247.2" cy="25.2" rx="11.2" ry="3.2"/>
	
		<ellipse transform="matrix(-0.1529 -0.9882 0.9882 -0.1529 137.1183 297.4612)" style="fill:#5EA304;" cx="196.047" cy="89.964" rx="6.4" ry="23.199"/>
</g>
<ellipse style="fill:#A01C02;" cx="164" cy="271.6" rx="25.6" ry="16"/>
<ellipse style="fill:#721104;" cx="330.4" cy="271.6" rx="25.6" ry="16"/>
<ellipse style="fill:#F9F080;" cx="164" cy="266.8" rx="25.6" ry="16"/>
<path style="fill:#F4CF31;" d="M164,251.6c14.4,0,25.6,7.2,25.6,16s-11.2,16-25.6,16"/>
<ellipse style="fill:#F9F080;" cx="330.4" cy="266.8" rx="25.6" ry="16"/>
<path style="fill:#F4CF31;" d="M330.4,251.6c14.4,0,25.6,7.2,25.6,16s-11.2,16-25.6,16"/>
<g>
	<path style="fill:#5EA304;" d="M192.8,250c-2.4,6.4-12-1.6-25.6-7.2c-13.6-5.6-25.6-7.2-22.4-13.6c2.4-6.4,16-7.2,28.8-1.6
		C187.2,234,195.2,243.6,192.8,250z"/>
	<path style="fill:#5EA304;" d="M300.8,220.4c3.2,6.4,12-2.4,24.8-9.6c12.8-7.2,24.8-9.6,21.6-15.2c-3.2-6.4-16-5.6-28.8,1.6
		C304.8,204.4,297.6,214.8,300.8,220.4z"/>
</g>
<g>
	<path style="fill:#388C02;" d="M192.8,250c-2.4,6.4-12-1.6-25.6-7.2c-13.6-5.6-25.6-7.2-22.4-13.6"/>
	<path style="fill:#388C02;" d="M300.8,220.4c3.2,6.4,12-2.4,24.8-9.6c12.8-7.2,24.8-9.6,21.6-15.2"/>
</g>
<path style="fill:#EF4220;" d="M213.6,300.4c0,9.6-28,5.6-62.4,5.6s-62.4,4.8-62.4-5.6c0-9.6,28-17.6,62.4-17.6
	S213.6,290.8,213.6,300.4z"/>
<path style="fill:#C92B00;" d="M405.6,300.4c0,9.6-28,5.6-62.4,5.6c-34.4,0-62.4,4.8-62.4-5.6c0-9.6,28-17.6,62.4-17.6
	C377.6,282.8,405.6,290.8,405.6,300.4z"/>
<path style="fill:#388C02;" d="M320.8,310.8c0,36.8-32.8,67.2-73.6,67.2s-73.6-30.4-73.6-67.2"/>
<path style="fill:#036D2E;" d="M320.8,310.8c0,12.8-32.8,22.4-73.6,22.4s-73.6-10.4-73.6-22.4"/>
<path style="fill:#5EA304;" d="M247.2,378c22.4,0,43.2-9.6,56.8-24c-8-8.8-20.8-13.6-34.4-13.6c-8,0-16,1.6-22.4,5.6
	c-6.4-3.2-14.4-5.6-22.4-5.6c-13.6,0-25.6,5.6-34.4,13.6C204,368.4,224.8,378,247.2,378z"/>
<g>
</g>
<g>
</g>
<g>
</g>
<g>
</g>
<g>
</g>
<g>
</g>
<g>
</g>
<g>
</g>
<g>
</g>
<g>
</g>
<g>
</g>
<g>
</g>
<g>
</g>
<g>
</g>
<g>
</g>
</svg>
